<svg viewBox="0 0 24 24" fill="none" xmlns="http://www.w3.org/2000/svg">
  <path d="M12 15C13.6569 15 15 13.6569 15 12C15 10.3431 13.6569 9 12 9C10.3431 9 9 10.3431 9 12C9 13.6569 10.3431 15 12 15Z" stroke="currentColor" stroke-width="2" stroke-linecap="round" stroke-linejoin="round"/>
  <path d="M10.5 3H13.5L14 6L17 7.5L20 6L21.5 8.5L19.5 11.5V12.5L21.5 15.5L20 18L17 16.5L14 18L13.5 21H10.5L10 18L7 16.5L4 18L2.5 15.5L4.5 12.5V11.5L2.5 8.5L4 6L7 7.5L10 6L10.5 3Z" stroke="currentColor" stroke-width="2" stroke-linecap="round" stroke-linejoin="round"/>
</svg>
